<?xml version="1.0" encoding="UTF-8" standalone="no"?>
<svg
   xmlns:dc="http://purl.org/dc/elements/1.1/"
   xmlns:cc="http://creativecommons.org/ns#"
   xmlns:rdf="http://www.w3.org/1999/02/22-rdf-syntax-ns#"
   xmlns:svg="http://www.w3.org/2000/svg"
   xmlns="http://www.w3.org/2000/svg"
   id="svg56"
   xml:space="preserve"
   viewBox="0 0 550 445"
   height="445"
   width="550"
   version="1.1"><metadata
     id="metadata60"><rdf:RDF><cc:Work
         rdf:about=""><dc:format>image/svg+xml</dc:format><dc:type
           rdf:resource="http://purl.org/dc/dcmitype/StillImage" /></cc:Work></rdf:RDF></metadata><defs
     id="defs4"><style
       id="style2"
       type="text/css">@import url(&quot;https://fonts.googleapis.com/css2?family=Black+Ops One:wght@400&quot;);</style></defs><defs
     id="defs6" /><g
     id="icon"
     transform="matrix(0.16 0 0 0.16 157.95 222.5)"><g
       id="g35"
       style=""><g
         id="icon_piece"
         transform="matrix(1 0 0 1 0 0)"><linearGradient
           y2="482.39799999999997"
           x2="511.9998006940262"
           y1="0"
           x1="0"
           gradientTransform="matrix(1 0 0 1 0 14.8)"
           gradientUnits="userSpaceOnUse"
           id="SVGID_5"><stop
             id="stop8"
             style="stop-color:rgb(25,118,210);stop-opacity: 1"
             offset="0%" /></linearGradient><path
           id="path11"
           stroke-linecap="round"
           d="M 502.059 52.601 c -13.499 -23.701 -37.798 -37.8 -65.099 -37.8 H 75.04 c -27.301 0 -51.601 14.099 -65.099 37.8 C -3.56 76.3 -3.259 104.5 10.539 128.2 l 180.96 332.4 c 13.801 22.8 37.8 36.599 64.501 36.599 s 50.7 -13.799 64.501 -36.599 l 180.96 -332.4 C 515.259 104.5 515.56 76.3 502.059 52.601 z"
           transform=" translate(-256, -256)"
           style="stroke: none; stroke-width: 1; stroke-dasharray: none; stroke-linecap: butt; stroke-dashoffset: 0; stroke-linejoin: miter; stroke-miterlimit: 4; fill: url(#SVGID_5); fill-rule: nonzero; opacity: 1;" /></g><g
         id="g19"
         transform="matrix(1 0 0 1 128 0)"><linearGradient
           y2="482.39799999999997"
           x2="255.9999003470131"
           y1="0"
           x1="0"
           gradientTransform="matrix(1 0 0 1 256 14.8)"
           gradientUnits="userSpaceOnUse"
           id="SVGID_6"><stop
             id="stop14"
             style="stop-color:rgb(25,118,210);stop-opacity: 1"
             offset="0%" /></linearGradient><path
           id="path17"
           stroke-linecap="round"
           d="M 501.461 128.2 l -180.96 332.4 c -13.801 22.8 -37.8 36.599 -64.501 36.599 V 14.801 h 180.96 c 27.301 0 51.601 14.099 65.099 37.8 C 515.56 76.3 515.259 104.5 501.461 128.2 z"
           transform=" translate(-384, -256)"
           style="stroke: none; stroke-width: 1; stroke-dasharray: none; stroke-linecap: butt; stroke-dashoffset: 0; stroke-linejoin: miter; stroke-miterlimit: 4; fill: url(#SVGID_6); fill-rule: nonzero; opacity: 1;" /></g><g
         id="g26"
         transform="matrix(1 0 0 1 0 0)"><linearGradient
           y2="362.399"
           x2="391.77150000000006"
           y1="0"
           x1="0"
           gradientTransform="matrix(1 0 0 1 60.11 74.8)"
           gradientUnits="userSpaceOnUse"
           id="SVGID_7"><stop
             id="stop21"
             style="stop-color:rgb(224,228,236);stop-opacity: 1"
             offset="0%" /></linearGradient><path
           id="path24"
           stroke-linecap="round"
           d="M 449.86 82.301 c -2.699 -4.501 -7.5 -7.5 -12.9 -7.5 H 75.04 c -5.4 0 -10.201 2.999 -12.9 7.5 c -2.701 4.799 -2.701 10.499 0 15 L 242.8 430 c 2.701 4.501 5.7 7.2 11.1 7.2 h 2.1 c 5.099 0 10.201 -2.699 12.9 -7.2 L 449.86 97.601 C 452.561 92.8 452.561 87.1 449.86 82.301 z"
           transform=" translate(-256, -256)"
           style="stroke: none; stroke-width: 1; stroke-dasharray: none; stroke-linecap: butt; stroke-dashoffset: 0; stroke-linejoin: miter; stroke-miterlimit: 4; fill: url(#SVGID_7); fill-rule: nonzero; opacity: 1;" /></g><g
         id="g33"
         transform="matrix(1 0 0 1 97.94 0)"><linearGradient
           y2="362.399"
           x2="195.88575"
           y1="0"
           x1="0"
           gradientTransform="matrix(1 0 0 1 256 74.8)"
           gradientUnits="userSpaceOnUse"
           id="SVGID_8"><stop
             id="stop28"
             style="stop-color:rgb(224,224,224);stop-opacity: 1"
             offset="0%" /></linearGradient><path
           id="path31"
           stroke-linecap="round"
           d="M 449.86 97.601 L 268.9 430 c -2.699 4.501 -7.8 7.2 -12.9 7.2 V 74.801 h 180.96 c 5.4 0 10.201 2.999 12.9 7.5 C 452.561 87.1 452.561 92.8 449.86 97.601 z"
           transform=" translate(-353.94, -256)"
           style="stroke: none; stroke-width: 1; stroke-dasharray: none; stroke-linecap: butt; stroke-dashoffset: 0; stroke-linejoin: miter; stroke-miterlimit: 4; fill: url(#SVGID_8); fill-rule: nonzero; opacity: 1;" /></g></g></g><g
     id="logo-name"
     style=""
     transform="matrix(1.76 0 0 1.76 329.38 223.38)"><linearGradient
       y2="33.89999999999999"
       x2="0"
       y1="0"
       x1="0"
       gradientTransform="matrix(1 0 0 1 -59.32 -16.95)"
       gradientUnits="userSpaceOnUse"
       id="SVGID_10"><stop
         id="stop38"
         style="stop-color:rgb(245,245,245);stop-opacity: 1"
         offset="0%" /></linearGradient><text
       id="text53"
       style="stroke: none; stroke-width: 1; stroke-dasharray: none; stroke-linecap: butt; stroke-dashoffset: 0; stroke-linejoin: miter; stroke-miterlimit: 4; fill: url(#SVGID_10); fill-rule: nonzero; opacity: 1; white-space: pre;"
       font-weight="normal"
       font-style="normal"
       font-size="30"
       font-family="Black Ops One"
       xml:space="preserve"><tspan
         id="tspan41"
         y="9.42"
         x="-59.32">S</tspan><tspan
         id="tspan43"
         y="9.42"
         x="-36.18">t</tspan><tspan
         id="tspan45"
         y="9.42"
         x="-21.28">a</tspan><tspan
         id="tspan47"
         y="9.42"
         x="-0.28">k</tspan><tspan
         id="tspan49"
         y="9.42"
         x="20.44">e</tspan><tspan
         id="tspan51"
         y="9.42"
         x="41.43">y</tspan></text>
</g></svg>